<svg width="200" height="200" viewBox="0 0 200 200" fill="none" xmlns="http://www.w3.org/2000/svg">
<path d="M88.07 176.55C90.16 176.8 92.15 177.96 91.66 180.64H75.47C76 178 74 176.8 71.88 176.55C70.8241 176.413 69.7808 176.193 68.76 175.89V175.76C68.76 175.57 68.76 174.63 68.76 173.09H77.7C78.49 173.27 83.71 176 88.07 176.55Z" fill="black"/>
<path d="M75.47 180.64L52.39 180.74C52.39 180.43 52.39 177.61 52.33 173.09H61.51C62.13 173.22 65.34 174.88 68.77 175.88C69.7908 176.183 70.8341 176.403 71.89 176.54C74 176.8 76 178 75.47 180.64Z" fill="black"/>
<path d="M62.3 91.0004C65.68 91.3204 68.3 89.2604 69.72 87.9004L69.78 87.9604C72.78 88.1304 75.61 88.8404 76.78 90.6504H76.86C79.33 87.8404 84.92 86.9803 87.5 89.2403H87.66C87.89 88.4803 88.33 86.9504 88.87 85.1104H89C90 92.6804 90.76 99.6004 90.82 102.82L51.58 103C51.67 101.17 52.14 95.3804 52.58 88.8904L52.63 88.7604C53.13 88.9304 53.63 89.0903 54.13 89.2403C56.8014 90.0466 59.5336 90.6352 62.3 91.0004Z" fill="black"/>
<path d="M53.52 70.8704C52.1341 72.4395 50.8291 74.0783 49.61 75.7803C48.74 77.2503 50.35 79.0403 52.92 80.7803V80.7204C53.24 76.3004 53.44 72.7804 53.52 70.8704ZM56.87 83.0004V83.1604C56.87 83.1604 54.05 84.7204 54.18 89.0004L54.1 89.2604C53.61 89.1104 53.1 88.9503 52.6 88.7803C46.47 86.6903 39.53 82.8404 38.53 76.0004C38.14 73.2804 39.64 71.1204 40.83 68.6804C42.32 65.6004 50.96 54.3904 53.07 52.6804C55.46 50.6804 63.63 49.5204 63.63 49.5204C63.8142 48.7214 64.2746 48.013 64.93 47.5204C65.93 47.0704 71.73 46.9004 75.04 47.2704C75.2324 47.2917 75.4191 47.3494 75.59 47.4403C75.9669 47.6531 76.29 47.9494 76.5344 48.3065C76.7789 48.6636 76.9381 49.072 77 49.5004L94 46.2603C90.67 39.8103 88.33 36.0004 84 28.4904V28.4104C84.327 27.6361 84.8595 26.966 85.5398 26.4725C86.2202 25.979 87.0225 25.6809 87.86 25.6104C89.76 27.6804 106.43 45.9903 104.42 48.8703C102.02 52.3303 85.42 59.7803 85.42 59.7803C85.85 62.5003 86.42 66.1404 87.11 70.5804V70.6504C83.49 70.6504 79.75 71.8503 78.64 74.4503H78.54C76.7 68.7803 62.34 69.0004 61.63 71.0004C61.43 71.5404 61.37 77.1603 61.41 81.9203H61.34C60.7598 81.9557 60.2024 82.1588 59.7355 82.5049C59.2686 82.8511 58.9124 83.3255 58.71 83.8704C58.12 83.6004 57.49 83.3004 56.87 83.0004Z" fill="black"/>
<path d="M52.34 182.62H75.42V180.72H52.34V182.62Z" stroke="black" stroke-width="0.86" stroke-linecap="round" stroke-linejoin="round"/>
<path d="M91.62 180.73H75.46V182.63H91.62V180.73Z" stroke="black" stroke-width="0.86" stroke-linecap="round" stroke-linejoin="round"/>
<path d="M88.33 176.56V158.17H122.69V169.08" stroke="black" stroke-width="0.86" stroke-miterlimit="10" stroke-linecap="round"/>
<path d="M122.69 178.51V182.63H88.33" stroke="black" stroke-width="0.86" stroke-miterlimit="10" stroke-linecap="round"/>
<path d="M153.22 164C149.393 160.616 144.602 158.518 139.52 158" stroke="black" stroke-width="0.86" stroke-miterlimit="10" stroke-linecap="round"/>
<path d="M153.54 175.89C154.342 177.977 154.752 180.194 154.75 182.43H161.53C161.538 178.057 160.366 173.763 158.14 170" stroke="black" stroke-width="0.86" stroke-miterlimit="10" stroke-linecap="round"/>
<path d="M139.48 164.83C143.385 165.306 147.007 167.11 149.74 169.94" stroke="black" stroke-width="0.86" stroke-miterlimit="10" stroke-linecap="round"/>
<path d="M142.7 158.82L141.35 165.04" stroke="black" stroke-width="0.86" stroke-miterlimit="10" stroke-linecap="round"/>
<path d="M148.36 160.8L145.59 166.77" stroke="black" stroke-width="0.86" stroke-miterlimit="10" stroke-linecap="round"/>
<path d="M152.84 163.72L148.81 169.06" stroke="black" stroke-width="0.86" stroke-miterlimit="10" stroke-linecap="round"/>
<path d="M154.54 174.86L159.81 173.43" stroke="black" stroke-width="0.86" stroke-miterlimit="10" stroke-linecap="round"/>
<path d="M154.52 179.15L161.08 178.61" stroke="black" stroke-width="0.86" stroke-miterlimit="10" stroke-linecap="round"/>
<path d="M115.67 171C119.151 176.4 124.611 180.219 130.877 181.636C137.143 183.053 143.715 181.956 149.181 178.579C154.646 175.202 158.569 169.817 160.106 163.579C161.643 157.341 160.671 150.749 157.4 145.22L151.63 148.78C152.917 150.763 153.795 152.983 154.213 155.31C154.63 157.636 154.579 160.023 154.061 162.33C153.544 164.637 152.57 166.817 151.199 168.742C149.827 170.668 148.085 172.3 146.074 173.543C144.063 174.786 141.824 175.614 139.489 175.98C137.153 176.346 134.768 176.242 132.473 175.673C130.178 175.105 128.02 174.084 126.126 172.67C124.231 171.256 122.638 169.478 121.44 167.44L115.67 171Z" stroke="black" stroke-width="0.86" stroke-miterlimit="10" stroke-linecap="round"/>
<path d="M159.72 150.61L153.53 152.6" stroke="black" stroke-width="0.86" stroke-miterlimit="10" stroke-linecap="round"/>
<path d="M160.85 157.05L154.43 157.3" stroke="black" stroke-width="0.86" stroke-miterlimit="10" stroke-linecap="round"/>
<path d="M160.54 163.03L154 161.49" stroke="black" stroke-width="0.86" stroke-miterlimit="10" stroke-linecap="round"/>
<path d="M158.68 168.59L152.57 165.92" stroke="black" stroke-width="0.86" stroke-miterlimit="10" stroke-linecap="round"/>
<path d="M154.91 174.39L150.07 169.79" stroke="black" stroke-width="0.86" stroke-miterlimit="10" stroke-linecap="round"/>
<path d="M149.84 178.66L146.49 172.98" stroke="black" stroke-width="0.86" stroke-miterlimit="10" stroke-linecap="round"/>
<path d="M144.1 181.19L141.98 175.19" stroke="black" stroke-width="0.86" stroke-miterlimit="10" stroke-linecap="round"/>
<path d="M138.24 182.48L137.47 175.94" stroke="black" stroke-width="0.86" stroke-miterlimit="10" stroke-linecap="round"/>
<path d="M132.9 182.35L133.52 175.69" stroke="black" stroke-width="0.86" stroke-miterlimit="10" stroke-linecap="round"/>
<path d="M127.37 180.86L129.7 174.56" stroke="black" stroke-width="0.86" stroke-miterlimit="10" stroke-linecap="round"/>
<path d="M126.36 172.84L121.87 177.76" stroke="black" stroke-width="0.86" stroke-miterlimit="10" stroke-linecap="round"/>
<path d="M123.36 170.1L118.06 174.02" stroke="black" stroke-width="0.86" stroke-miterlimit="10" stroke-linecap="round"/>
<path d="M107.12 131.34C98.309 133.129 90.4721 138.116 85.12 145.34" stroke="black" stroke-width="0.86" stroke-miterlimit="10" stroke-linecap="round"/>
<path d="M102.29 143.55C103.86 142.722 105.508 142.052 107.21 141.55" stroke="black" stroke-width="0.86" stroke-miterlimit="10" stroke-linecap="round"/>
<path d="M89.54 158.18C91.2571 153.293 94.3902 149.029 98.54 145.93" stroke="black" stroke-width="0.86" stroke-miterlimit="10" stroke-linecap="round"/>
<path d="M85.81 176.11L88.31 175.3" stroke="black" stroke-width="0.86" stroke-miterlimit="10" stroke-linecap="round"/>
<path d="M79.14 168.44L87.83 168.07" stroke="black" stroke-width="0.86" stroke-miterlimit="10" stroke-linecap="round"/>
<path d="M81.49 160.22L88.29 161.86" stroke="black" stroke-width="0.86" stroke-miterlimit="10" stroke-linecap="round"/>
<path d="M83.56 152.2L90.58 155.34" stroke="black" stroke-width="0.86" stroke-miterlimit="10" stroke-linecap="round"/>
<path d="M87.16 142.84L94.28 149.62" stroke="black" stroke-width="0.86" stroke-miterlimit="10" stroke-linecap="round"/>
<path d="M94.62 136.5L98.93 143.82" stroke="black" stroke-width="0.86" stroke-miterlimit="10" stroke-linecap="round"/>
<path d="M103.11 132.77L106.23 141.63" stroke="black" stroke-width="0.86" stroke-miterlimit="10" stroke-linecap="round"/>
<path d="M96.36 166.46L93.36 169.46" stroke="black" stroke-width="0.86" stroke-miterlimit="10" stroke-linecap="round"/>
<path d="M93.32 166.46L96.32 169.46" stroke="black" stroke-width="0.86" stroke-miterlimit="10" stroke-linecap="round"/>
<path d="M122 96C120.876 96 119.778 96.3334 118.843 96.958C117.909 97.5825 117.181 98.4702 116.751 99.5087C116.322 100.547 116.21 101.69 116.43 102.792C116.65 103.894 117.192 104.906 117.987 105.7C118.783 106.494 119.796 107.034 120.898 107.252C122.001 107.47 123.143 107.356 124.181 106.925C125.218 106.493 126.105 105.764 126.728 104.828C127.351 103.893 127.682 102.794 127.68 101.67C127.68 100.925 127.533 100.186 127.247 99.4979C126.962 98.8093 126.543 98.1838 126.016 97.6572C125.488 97.1305 124.862 96.7131 124.173 96.4287C123.484 96.1444 122.745 95.9987 122 96ZM125.13 104.79C125.09 104.832 125.042 104.865 124.988 104.888C124.935 104.91 124.878 104.922 124.82 104.922C124.762 104.922 124.705 104.91 124.652 104.888C124.598 104.865 124.55 104.832 124.51 104.79C123.93 104.2 122.97 103.24 122 102.28L119.49 104.79C119.452 104.832 119.406 104.866 119.354 104.888C119.302 104.91 119.246 104.921 119.19 104.92C119.105 104.918 119.023 104.891 118.953 104.843C118.883 104.795 118.829 104.728 118.796 104.65C118.763 104.572 118.754 104.486 118.769 104.403C118.784 104.319 118.822 104.242 118.88 104.18C119.13 103.94 120.23 102.83 121.39 101.67L118.89 99.17C118.849 99.1313 118.815 99.0848 118.792 99.0331C118.769 98.9815 118.756 98.9258 118.754 98.8691C118.752 98.8125 118.761 98.7561 118.781 98.703C118.801 98.65 118.831 98.6014 118.87 98.56C118.909 98.5186 118.955 98.4853 119.007 98.4619C119.058 98.4385 119.114 98.4255 119.171 98.4237C119.228 98.4218 119.284 98.4311 119.337 98.4511C119.39 98.4711 119.439 98.5013 119.48 98.54C119.57 98.62 120.74 99.8 122 101.06L124.52 98.54C124.602 98.4612 124.711 98.4171 124.825 98.4171C124.939 98.4171 125.048 98.4612 125.13 98.54C125.17 98.58 125.202 98.6275 125.224 98.6798C125.246 98.7322 125.257 98.7883 125.257 98.845C125.257 98.9017 125.246 98.9578 125.224 99.0102C125.202 99.0625 125.17 99.11 125.13 99.15L122.62 101.65L125.14 104.16C125.216 104.247 125.255 104.361 125.249 104.476C125.243 104.591 125.194 104.7 125.11 104.78L125.13 104.79Z" fill="black"/>
<path d="M111.52 166.46L108.52 169.46" stroke="black" stroke-width="0.86" stroke-miterlimit="10" stroke-linecap="round"/>
<path d="M108.47 166.46L111.47 169.46" stroke="black" stroke-width="0.86" stroke-miterlimit="10" stroke-linecap="round"/>
<path d="M107.3 158.16V131.61H139.48V175.42" stroke="black" stroke-width="0.86" stroke-miterlimit="10" stroke-linecap="round"/>
<path d="M156.09 145.93C157.3 145.45 159.37 141.85 157.66 138.76C155.81 135.4 152.74 135.57 151.48 136.2C152.48 138.52 154.99 143.89 156.01 145.95" stroke="black" stroke-width="0.86" stroke-miterlimit="10" stroke-linecap="round"/>
<path d="M148 138.22C146.79 138.71 144.72 142.3 146.43 145.39C148.28 148.75 151.35 148.58 152.61 147.96C151.61 145.64 149.1 140.26 148.08 138.21" stroke="black" stroke-width="0.86" stroke-miterlimit="10" stroke-linecap="round"/>
<path d="M92.41 174.21C93.33 174.21 93.33 180.38 94.25 180.38C95.17 180.38 95.17 174.21 96.1 174.21C97.03 174.21 97.02 180.38 97.94 180.38C98.86 180.38 98.86 174.21 99.78 174.21C100.7 174.21 100.7 180.38 101.62 180.38C102.54 180.38 102.55 174.21 103.47 174.21C104.39 174.21 104.39 180.38 105.32 180.38C106.25 180.38 106.24 174.21 107.16 174.21C108.08 174.21 108.09 180.38 109.01 180.38C109.93 180.38 109.94 174.21 110.86 174.21C111.78 174.21 111.79 180.38 112.71 180.38" stroke="black" stroke-width="0.86" stroke-miterlimit="10" stroke-linecap="round"/>
<path d="M113.23 158.1L118.75 147.53" stroke="black" stroke-width="0.86" stroke-miterlimit="10" stroke-linecap="round"/>
<path d="M119.36 147.48C120.597 147.48 121.6 146.477 121.6 145.24C121.6 144.003 120.597 143 119.36 143C118.123 143 117.12 144.003 117.12 145.24C117.12 146.477 118.123 147.48 119.36 147.48Z" stroke="black" stroke-width="0.86" stroke-miterlimit="10" stroke-linecap="round"/>
<path d="M94.59 158.1L100.11 147.53" stroke="black" stroke-width="0.86" stroke-miterlimit="10" stroke-linecap="round"/>
<path d="M100.72 147.48C101.957 147.48 102.96 146.477 102.96 145.24C102.96 144.003 101.957 143 100.72 143C99.4829 143 98.48 144.003 98.48 145.24C98.48 146.477 99.4829 147.48 100.72 147.48Z" stroke="black" stroke-width="0.86" stroke-miterlimit="10" stroke-linecap="round"/>
<path d="M125.97 171.98V143.38H139.37" stroke="black" stroke-width="0.86" stroke-miterlimit="10" stroke-linecap="round"/>
<path d="M119.52 131.61C119.52 131.61 106.52 115.44 106.26 115.21C105.85 114.77 100.74 117.82 102.2 123.96C103.66 130.1 107.4 131.56 107.4 131.56" stroke="black" stroke-width="0.86" stroke-miterlimit="10" stroke-linecap="round"/>
<path d="M117.42 128.82C117.789 128.571 118.238 128.471 118.677 128.54C119.117 128.608 119.514 128.841 119.789 129.191C120.064 129.54 120.196 129.981 120.16 130.425C120.123 130.868 119.919 131.281 119.59 131.58" stroke="black" stroke-width="0.86" stroke-miterlimit="10" stroke-linecap="round"/>
<path d="M115.26 126.07C115.629 125.821 116.078 125.721 116.517 125.79C116.957 125.858 117.354 126.091 117.629 126.441C117.904 126.79 118.037 127.231 118 127.675C117.963 128.118 117.759 128.531 117.43 128.83" stroke="black" stroke-width="0.86" stroke-miterlimit="10" stroke-linecap="round"/>
<path d="M113.1 123.33C113.469 123.081 113.918 122.981 114.357 123.049C114.797 123.118 115.194 123.351 115.469 123.701C115.744 124.05 115.877 124.491 115.84 124.935C115.803 125.378 115.599 125.791 115.27 126.09" stroke="black" stroke-width="0.86" stroke-miterlimit="10" stroke-linecap="round"/>
<path d="M110.94 120.58C111.309 120.331 111.758 120.231 112.197 120.299C112.637 120.368 113.034 120.601 113.309 120.951C113.584 121.3 113.717 121.741 113.68 122.185C113.643 122.628 113.439 123.041 113.11 123.34" stroke="black" stroke-width="0.86" stroke-miterlimit="10" stroke-linecap="round"/>
<path d="M108.77 117.84C109.136 117.545 109.604 117.407 110.072 117.456C110.54 117.506 110.969 117.739 111.265 118.105C111.561 118.471 111.699 118.94 111.649 119.408C111.6 119.876 111.366 120.305 111 120.6" stroke="black" stroke-width="0.86" stroke-miterlimit="10" stroke-linecap="round"/>
<path d="M106.61 115.09C106.978 114.823 107.434 114.708 107.885 114.77C108.335 114.833 108.743 115.066 109.025 115.423C109.307 115.78 109.44 116.231 109.396 116.684C109.352 117.136 109.135 117.554 108.79 117.85" stroke="black" stroke-width="0.86" stroke-miterlimit="10" stroke-linecap="round"/>
<path d="M137 129.39C136.36 127.82 132.33 120.99 135.49 119.96C137.55 119.28 142.92 126.37 141.21 127.42C139.88 128.24 136.63 120.15 137.64 118.55C139.42 115.74 144.64 122.45 144.86 124.14C145.15 126 143.86 125.14 143.22 124.07C141.82 121.82 140.45 117.87 142.52 115.65" stroke="black" stroke-width="0.86" stroke-miterlimit="10" stroke-linecap="round"/>
<path d="M99.79 129.82C98.51 129.95 92.67 131.39 92.6 128.87C92.6 127.23 98.87 124.87 99.27 126.33C99.58 127.48 92.99 128.08 92.05 127C90.39 125.1 96.39 122.79 97.68 123C98.97 123.21 98.15 123.93 97.27 124.17C95.33 124.7 92.16 124.84 90.99 122.86" stroke="black" stroke-width="0.86" stroke-miterlimit="10" stroke-linecap="round"/>
<path d="M125.54 111.52H113.39C112.803 111.553 112.226 111.351 111.788 110.959C111.349 110.567 111.084 110.017 111.05 109.43V94.1C111.084 93.5119 111.348 92.9609 111.787 92.5674C112.225 92.174 112.802 91.97 113.39 92H130.58C131.167 91.9699 131.742 92.1725 132.18 92.5639C132.618 92.9552 132.884 93.5036 132.92 94.09V109.42C132.886 110.007 132.621 110.557 132.182 110.949C131.744 111.341 131.167 111.543 130.58 111.51H128.25" stroke="black" stroke-width="0.86" stroke-linecap="round" stroke-linejoin="round"/>
<path d="M128.32 110.29C128.32 110.29 127.68 114.91 126.55 115.79C125.42 116.67 125.66 109.4 125.66 109.4" stroke="black" stroke-width="0.86" stroke-linecap="round" stroke-linejoin="round"/>
<path d="M75.88 28.7599C75.9347 28.7599 75.9888 28.7708 76.0392 28.792C76.0896 28.8132 76.1353 28.8443 76.1735 28.8835C76.2117 28.9226 76.2417 28.969 76.2617 29.0199C76.2817 29.0708 76.2913 29.1252 76.29 29.1799C76.29 29.2346 76.2791 29.2887 76.2579 29.3391C76.2366 29.3895 76.2055 29.4352 76.1664 29.4734C76.1273 29.5116 76.0809 29.5416 76.03 29.5616C75.9791 29.5816 75.9247 29.5912 75.87 29.5899C75.8101 29.5992 75.7489 29.5955 75.6906 29.5789C75.6323 29.5623 75.5782 29.5333 75.5322 29.4939C75.4861 29.4545 75.4492 29.4055 75.4238 29.3505C75.3985 29.2954 75.3854 29.2355 75.3854 29.1749C75.3854 29.1143 75.3985 29.0544 75.4238 28.9993C75.4492 28.9442 75.4861 28.8953 75.5322 28.8559C75.5782 28.8164 75.6323 28.7874 75.6906 28.7709C75.7489 28.7543 75.8101 28.7506 75.87 28.7599H75.88Z" fill="black"/>
<path d="M70.27 28.5802C70.3252 28.5815 70.3795 28.5937 70.43 28.616C70.4805 28.6383 70.526 28.6703 70.5641 28.7103C70.6022 28.7502 70.632 28.7972 70.6519 28.8487C70.6718 28.9002 70.6813 28.955 70.68 29.0102C70.68 29.0649 70.6691 29.119 70.6479 29.1694C70.6266 29.2199 70.5955 29.2655 70.5564 29.3037C70.5173 29.3419 70.4709 29.3719 70.42 29.3919C70.3691 29.4119 70.3147 29.4215 70.26 29.4202C70.2048 29.4189 70.1505 29.4067 70.1 29.3844C70.0496 29.3621 70.004 29.3301 69.9659 29.2901C69.9278 29.2502 69.898 29.2032 69.8781 29.1517C69.8582 29.1002 69.8487 29.0454 69.85 28.9902C69.85 28.9355 69.8609 28.8814 69.8821 28.831C69.9034 28.7805 69.9345 28.7349 69.9736 28.6967C70.0127 28.6585 70.0591 28.6285 70.11 28.6085C70.1609 28.5885 70.2153 28.5789 70.27 28.5802Z" fill="black"/>
<path d="M68.52 148.86C68.61 159.52 68.74 168.72 68.79 173.09C68.79 174.63 68.79 175.57 68.79 175.76" stroke="black" stroke-width="0.86" stroke-miterlimit="10"/>
<path d="M58.57 106.49C58.7 110.81 55.7 113.4 52 114.43C50.9844 114.708 49.9417 114.876 48.89 114.93" stroke="black" stroke-width="0.86" stroke-miterlimit="10" stroke-linecap="round"/>
<path d="M74.1 111.54C73.5455 124.14 71.6617 136.646 68.48 148.85C66.37 157.35 63.91 165.48 61.55 172.98V173.08C62.17 173.21 65.38 174.87 68.81 175.87C69.8308 176.173 70.8741 176.394 71.93 176.53C74.03 176.78 76.01 177.94 75.52 180.62L52.44 180.72C52.44 180.41 52.44 177.59 52.38 173.07C52.25 160.62 51.96 135.32 52.05 114.41C52.05 110.49 52.05 106.73 52.14 103.23" stroke="black" stroke-width="0.86" stroke-linecap="round" stroke-linejoin="round"/>
<path d="M90.15 103.42C89.52 131.01 83.48 154.72 77.7 173.08C78.5 173.25 83.7 176.02 88.08 176.53C90.17 176.78 92.16 177.94 91.67 180.62H75.28" stroke="black" stroke-width="0.86" stroke-linecap="round" stroke-linejoin="round"/>
<path d="M78.08 173.09H77.7H68.94" stroke="black" stroke-width="0.86" stroke-miterlimit="10"/>
<path d="M61.52 173.09H61.51H52.38" stroke="black" stroke-width="0.86" stroke-miterlimit="10"/>
<path d="M79.87 27.4102C80.75 30.8702 75.87 39.0102 74.44 39.5602C74.266 39.6298 74.085 39.6801 73.9 39.7102C71.84 40.0802 69.24 38.2502 68.36 36.4402" stroke="black" stroke-width="0.86" stroke-miterlimit="10" stroke-linecap="round"/>
<path d="M65.66 25.5496C65.73 25.0596 65.8 24.5496 65.89 23.9596C66.0147 23.0798 66.1916 22.2083 66.42 21.3496C66.6978 20.1801 67.2381 19.0892 68 18.1596C70.91 14.9096 74.09 17.3296 76.44 20.6796C77.0933 21.6235 77.6846 22.6089 78.21 23.6296" stroke="black" stroke-width="0.86" stroke-miterlimit="10" stroke-linecap="round"/>
<path d="M64.94 47.3497C64.94 41.4297 64.63 35.8397 65.12 29.9297" stroke="black" stroke-width="0.86" stroke-miterlimit="10"/>
<path d="M73.87 39.4697V39.7097C74.0817 42.3233 74.6676 44.8928 75.61 47.3397" stroke="black" stroke-width="0.86" stroke-miterlimit="10"/>
<path d="M66.48 26.5999C66.2387 26.2301 65.9496 25.8938 65.62 25.5999C63.28 23.5999 61.73 28.0399 62.69 29.3099C62.9945 29.6262 63.3854 29.8461 63.8138 29.9421C64.2423 30.0381 64.6896 30.006 65.1 29.8499C65.286 29.7923 65.4667 29.7187 65.64 29.6299" stroke="black" stroke-width="0.86" stroke-miterlimit="10" stroke-linecap="round"/>
<path d="M66.1 23.8803L65.89 23.9603C64.59 24.3803 57.97 26.2103 57.89 23.9603C57.89 22.5803 62.02 21.8103 66.39 21.3803C70.95 20.9203 75.74 20.8303 76.27 20.7803" fill="#5FB2FF"/>
<path d="M66.1 23.8803L65.89 23.9603C64.59 24.3803 57.97 26.2103 57.89 23.9603C57.89 22.5803 62.02 21.8103 66.39 21.3803C70.95 20.9203 75.74 20.8303 76.27 20.7803" stroke="black" stroke-width="0.86" stroke-miterlimit="10"/>
<path d="M65.17 27.4004C64.7435 27.7925 64.1892 28.0164 63.61 28.0304" stroke="black" stroke-width="0.86" stroke-miterlimit="10" stroke-linecap="round"/>
<path d="M52.55 88.9102C52.14 95.4002 51.67 101.19 51.55 103.02L90.83 103C90.77 99.7302 90 92.8102 89 85.2402" stroke="black" stroke-width="0.86" stroke-linecap="round" stroke-linejoin="round"/>
<path d="M53.52 70.8701C53.44 72.7801 53.24 76.3001 52.97 80.6901" stroke="black" stroke-width="0.86" stroke-linecap="round" stroke-linejoin="round"/>
<path d="M59.1 84.0001L58.75 83.8401C58.12 83.5601 57.49 83.2601 56.87 82.9601C55.51 82.2888 54.191 81.5375 52.92 80.7101C50.35 79.0001 48.74 77.2101 49.61 75.7101C50.8291 74.008 52.1341 72.3692 53.52 70.8001C55.9764 67.863 58.6507 65.1153 61.52 62.5801" stroke="black" stroke-width="0.86" stroke-linejoin="round"/>
<path d="M83.73 21.6299C83.66 21.5099 83.49 21.2299 83.26 20.8899C82.67 20.0399 81.74 18.7699 81.56 18.5199C80.93 17.6399 80.2 17.7399 79.27 18.1499C78.66 18.4199 76.58 19.0299 76.79 20.0099C77.08 21.3199 79.46 20.0099 79.92 20.0799C80.38 20.1499 80.83 21.2299 81.18 21.8099" stroke="black" stroke-width="0.86" stroke-miterlimit="10" stroke-linecap="round"/>
<path d="M82.08 22.0997C81.7811 22.0066 81.4773 21.9299 81.17 21.8697C79.6 21.5897 78.92 22.0997 78.62 22.7297C78.46 23.0497 78.32 23.3497 78.19 23.6397C77.8417 24.2561 77.6206 24.9362 77.54 25.6397C77.5202 25.8061 77.5518 25.9747 77.6307 26.1226C77.7096 26.2705 77.8319 26.3907 77.9811 26.4669C78.1304 26.5432 78.2995 26.5719 78.4656 26.5491C78.6316 26.5264 78.7868 26.4533 78.91 26.3397" stroke="black" stroke-width="0.86" stroke-miterlimit="10" stroke-linecap="round"/>
<path d="M87 70.58C86.35 66.14 85.74 62.5 85.31 59.78C85.31 59.78 101.94 52.33 104.31 48.87C106.31 45.99 89.65 27.68 87.75 25.61L87.58 25.42C87.58 25.42 84.65 20.09 85.15 18.49C85.76 16.49 84.06 16.49 83.46 18.62C83.1994 19.3432 83.1237 20.1201 83.24 20.88" stroke="black" stroke-width="0.86" stroke-miterlimit="10" stroke-linecap="round"/>
<path d="M56.86 83.1602C56.86 83.1602 54.05 84.7202 54.18 89.0002" stroke="black" stroke-width="0.86" stroke-miterlimit="10" stroke-linecap="round"/>
<path d="M62.31 90.9996C59.5329 90.6294 56.7906 90.0341 54.11 89.2196C53.62 89.0696 53.11 88.9096 52.61 88.7396C46.47 86.6896 39.53 82.8396 38.53 75.9996C38.14 73.2796 39.64 71.1196 40.83 68.6796C42.32 65.5996 50.96 54.3896 53.07 52.6796C55.46 50.6796 63.63 49.5196 63.63 49.5196C63.8142 48.7206 64.2746 48.0123 64.93 47.5196C65.93 47.0696 71.73 46.8996 75.04 47.2696C75.2324 47.2909 75.4191 47.3486 75.59 47.4396C75.9669 47.6523 76.29 47.9486 76.5344 48.3057C76.7789 48.6628 76.9381 49.0713 77 49.4996L94 46.2596C90.67 39.8096 88.33 35.9996 84 28.4896V28.4096C83.77 27.9696 82.59 25.7396 82.54 25.7196C82.49 25.6996 81.1 25.7196 81.1 25.7196L80.78 26.6096C80.7158 26.8222 80.5827 27.0073 80.4016 27.1359C80.2206 27.2644 80.0019 27.3291 79.78 27.3196C79.37 27.3196 79 27.0996 79 26.7896C78.9868 26.6666 78.9868 26.5426 79 26.4196C79.0952 25.576 79.4439 24.781 80 24.1396C80.53 23.7296 81.49 23.8796 82.28 23.9496" stroke="black" stroke-width="0.86" stroke-linecap="round" stroke-linejoin="round"/>
<path d="M87.79 25.6104C86.9525 25.6809 86.1502 25.979 85.4698 26.4725C84.7895 26.966 84.257 27.6361 83.93 28.4104" stroke="black" stroke-width="0.86" stroke-miterlimit="10" stroke-linecap="round"/>
<path d="M71.64 36.2898C71.9574 36.0545 72.3391 35.9217 72.7341 35.9092C73.129 35.8967 73.5183 36.0051 73.85 36.2198" stroke="black" stroke-width="0.86" stroke-linecap="round" stroke-linejoin="round"/>
<path d="M71.23 26.3897C71.0619 26.2317 70.8624 26.1108 70.6446 26.0347C70.4269 25.9586 70.1955 25.9291 69.9656 25.9479C69.7357 25.9667 69.5122 26.0336 69.3098 26.1441C69.1073 26.2547 68.9302 26.4065 68.79 26.5897" stroke="black" stroke-width="0.86" stroke-miterlimit="10" stroke-linecap="round"/>
<path d="M76.7 26.3599C76.5334 26.2007 76.335 26.0786 76.1179 26.0017C75.9007 25.9248 75.6697 25.8948 75.44 25.9137C75.2104 25.9326 74.9874 26 74.7857 26.1113C74.5841 26.2227 74.4083 26.3756 74.27 26.5599" stroke="black" stroke-width="0.86" stroke-miterlimit="10" stroke-linecap="round"/>
<path d="M74.21 26.6904C73.7 27.9104 74.21 29.8304 74.42 31.1004C74.53 31.9704 74.69 33.6404 73.21 33.1004" stroke="black" stroke-width="0.86" stroke-miterlimit="10" stroke-linecap="round"/>
<path d="M78.49 74.5703C78.5023 74.5286 78.5191 74.4884 78.54 74.4503C79.65 71.8503 83.39 70.6703 87.01 70.6503C89.0294 70.5843 91.0353 71.0026 92.86 71.8703" stroke="black" stroke-width="0.86" stroke-linecap="round" stroke-linejoin="round"/>
<path d="M61.63 71.0002C62.34 69.0002 76.7 68.8102 78.44 74.4702L76.81 90.3102" stroke="black" stroke-width="0.86" stroke-linecap="round" stroke-linejoin="round"/>
<path d="M93 71.9404C92.54 72.7804 90.33 80.2004 88.85 85.2404C88.31 87.0804 87.85 88.6104 87.64 89.3704C87.6459 89.3934 87.6459 89.4175 87.64 89.4404" stroke="black" stroke-width="0.86" stroke-linecap="round" stroke-linejoin="round"/>
<path d="M87.49 89.33C84.91 87.07 79.32 87.93 76.85 90.74" stroke="black" stroke-width="0.86" stroke-linecap="round" stroke-linejoin="round"/>
<path d="M61.51 85.6395C61.51 84.9595 61.51 84.1995 61.51 83.3995C61.51 82.9295 61.51 82.3995 61.51 81.9395C61.51 77.1795 61.51 71.5595 61.73 71.0195" stroke="black" stroke-width="0.86" stroke-linecap="round" stroke-linejoin="round"/>
<path d="M76.77 90.69C75.61 88.88 72.77 88.17 69.77 88" stroke="black" stroke-width="0.86" stroke-linecap="round" stroke-linejoin="round"/>
<path d="M67.82 84.3404C68.64 83.4604 67.73 82.0704 66.63 82.9704C65.06 84.2604 63 85.6404 61.51 85.6304H61.14H60.92" stroke="black" stroke-width="0.86" stroke-linejoin="round"/>
<path d="M65 88.9402C66.7014 87.9357 68.2761 86.7304 69.69 85.3502L69.8 85.2202C70.17 84.7302 70.24 83.2202 69.04 83.4602C68.5744 83.6714 68.1561 83.9741 67.81 84.3502C66.5563 85.5174 65.1165 86.4672 63.55 87.1602" stroke="black" stroke-width="0.86" stroke-linecap="round" stroke-linejoin="round"/>
<path d="M62.23 90.9998H62.3C65.68 91.3198 68.3 89.2598 69.72 87.8998C70.21 87.4198 70.54 87.0198 70.72 86.8998C71.33 86.1598 70.85 85.0098 69.72 85.3698" stroke="black" stroke-width="0.86" stroke-linejoin="round"/>
<path d="M61.18 85.8096C61.1744 85.7364 61.1744 85.6629 61.18 85.5896C61.0794 85.2201 61.0567 84.8337 61.1135 84.4549C61.1704 84.0762 61.3054 83.7134 61.51 83.3896" stroke="black" stroke-width="0.86" stroke-linejoin="round"/>
<path d="M58.62 84.1797C58.62 84.1097 58.69 83.9997 58.75 83.8797C58.9524 83.3348 59.3086 82.8605 59.7755 82.5143C60.2424 82.1681 60.7998 81.965 61.38 81.9297" stroke="black" stroke-width="0.86" stroke-linejoin="round"/>
<path d="M59.1 84.0001L58.75 83.8401C58.12 83.5601 57.49 83.2601 56.87 82.9601C55.51 82.2888 54.191 81.5375 52.92 80.7101C50.35 79.0001 48.74 77.2101 49.61 75.7101C50.8291 74.008 52.1341 72.3692 53.52 70.8001C55.9764 67.863 58.6507 65.1153 61.52 62.5801" stroke="white" stroke-width="0.86" stroke-linecap="round" stroke-linejoin="round"/>
<path d="M67.55 174.65C68.69 175.21 70.71 176.45 71.88 176.55C73.98 176.73 75.39 177.76 75.43 180.64" stroke="white" stroke-width="0.86" stroke-linecap="square" stroke-linejoin="round"/>
<path d="M66 24L76.5 20.5" stroke="black"/>
</svg>
